# xmcd
#
# Track frame offsets:
#	150
#	17259
#	33543
#	53462
#	85749
#	107838
#	125715
#	150009
#	161599
#	187736
#
# Disc length: 2760 seconds
#
# Revision: 0
# Processed by: cddbd v1.5.1PL0 Copyright (c) Steve Scherf et al.
# Submitted via: audiograbber 1.83.01
#
DISCID=640ac60a
DTITLE=Hayes Carll - Creekside Music Series - June 5 2005 (disk 2)
DYEAR=2005
DGENRE=
TTITLE0=Chickens
TTITLE1=Ain't Enough Of Me To Go Around
TTITLE2=Tale Me Away
TTITLE3=Naked Checkers
TTITLE4=Speed Of The Sound Of Loneliness
TTITLE5=Wish I Hadn't Stayed So Long
TTITLE6=Arkansas Blues
TTITLE7=Flowers and Liquor
TTITLE8=Little Rock
TTITLE9=Live Free Or Die
EXTD=
EXTT0=
EXTT1=
EXTT2=
EXTT3=
EXTT4=
EXTT5=
EXTT6=
EXTT7=
EXTT8=
EXTT9=
PLAYORDER=
